<svg width="151" height="152" xmlns="http://www.w3.org/2000/svg" xmlns:xlink="http://www.w3.org/1999/xlink" xml:space="preserve" overflow="hidden"><g transform="translate(-293 -284)"><path d="M75.3553 127.49C51.0248 127.497 31.2954 107.778 31.2885 83.4479 31.2815 59.1174 50.9996 39.388 75.3301 39.3811 99.6606 39.3742 119.39 59.0923 119.397 83.4228 119.397 83.427 119.397 83.4311 119.397 83.4354 119.44 107.722 99.7871 127.446 75.5002 127.49 75.4519 127.49 75.4036 127.49 75.3553 127.49ZM112.633 45.0452 117.352 40.3264C119.115 38.452 119.045 35.5086 117.195 33.7202 115.374 31.9456 112.492 31.8769 110.589 33.5629L105.241 39.0681C97.7579 33.9986 89.085 30.963 80.074 30.2598L80.074 23.6535 94.2303 23.6535 94.2303 14.216 56.4803 14.216 56.4803 23.6535 70.6365 23.6535 70.6365 30.1025C41.1315 32.6696 19.294 58.6695 21.8613 88.1744 24.4285 117.679 50.4283 139.517 79.9333 136.95 109.438 134.382 131.276 108.383 128.708 78.8777 127.591 66.0345 121.884 54.0239 112.633 45.0452Z" transform="matrix(1 0 0 1.00662 293 284)"/><path d="M113.102 83.4118C113.078 62.5731 96.1908 45.686 75.3521 45.6618L75.3521 83.4118Z" transform="matrix(1 0 0 1.00662 293 284)"/></g></svg>