<svg width="152" height="152" xmlns="http://www.w3.org/2000/svg" xmlns:xlink="http://www.w3.org/1999/xlink" xml:space="preserve" overflow="hidden"><g transform="translate(-444 -284)"><path d="M512.083 298.772C509.661 299.026 501 309.983 503.644 314.606 507.428 321.208 515.883 320.242 520.903 319.451 525.922 318.659 526.428 315.999 529.595 317.867 532.762 319.736 539.792 326.497 540.314 332.307 540.837 338.118 541.074 351.023 542.167 355.519 543.259 360.016 545.333 366.935 543.243 368.439 540.457 370.387 533.569 363.467 523.372 363.467 512.289 363.467 507.539 372.144 505.243 372.144 502.077 372.144 498.91 366.745 488.143 366.745 475.477 366.745 468.035 379.697 468.035 379.697L468.035 413.343C468.035 413.343 477.662 423.143 489.537 423.143 497.897 423.143 504.927 417.396 508.932 416.81 512.938 416.224 521.314 418.631 526.824 417.712 539.491 415.591 550.574 405.837 557.414 401.341 564.254 396.844 574.625 391.398 577 388.769 579.375 386.141 576.477 369.769 569.083 349.708 561.689 329.647 544.542 306.689 540.061 303.792 535.58 300.894 519.731 297.981 512.083 298.772Z"/></g></svg>