<svg width="151" height="152" xmlns="http://www.w3.org/2000/svg" xmlns:xlink="http://www.w3.org/1999/xlink" xml:space="preserve" overflow="hidden"><g transform="translate(-596 -284)"><path d="M70.7812 78.6458C70.7812 85.5954 65.1475 91.2292 58.1979 91.2292 51.2483 91.2292 45.6146 85.5954 45.6146 78.6458 45.6146 71.6963 51.2483 66.0625 58.1979 66.0625 65.1475 66.0625 70.7812 71.6963 70.7812 78.6458Z" transform="matrix(1 0 0 1.00662 596 284)"/><path d="M105.385 78.6458C105.385 85.5954 99.7517 91.2292 92.8021 91.2292 85.8525 91.2292 80.2188 85.5954 80.2188 78.6458 80.2188 71.6963 85.8525 66.0625 92.8021 66.0625 99.7517 66.0625 105.385 71.6963 105.385 78.6458Z" transform="matrix(1 0 0 1.00662 596 284)"/><path d="M81.9961 100.478C82.9169 102.012 82.4196 104.003 80.8852 104.924 80.3844 105.224 79.8118 105.384 79.2278 105.385L71.7722 105.385C69.9827 105.38 68.5365 103.925 68.542 102.135 68.5438 101.551 68.7034 100.979 69.0039 100.478L72.7317 94.2806C73.6447 92.7517 75.6244 92.2525 77.1533 93.1656 77.6116 93.4393 77.9946 93.8224 78.2683 94.2806Z" transform="matrix(1 0 0 1.00662 596 284)"/><path d="M75.5 14.1562C48.6189 14.1562 26.7396 37.75 26.7396 66.849 26.7396 78.3784 30.0427 87.6586 37.75 97.5837L37.75 105.448C37.6311 112.719 43.0989 118.87 50.3333 119.605L50.3333 132.188C50.3333 134.794 52.4459 136.907 55.0521 136.907L95.9479 136.907C98.5541 136.907 100.667 134.794 100.667 132.188L100.667 119.542C107.901 118.807 113.369 112.656 113.25 105.385L113.25 97.5208C120.957 87.5957 124.26 78.3155 124.26 66.786 124.26 37.75 102.381 14.1562 75.5 14.1562ZM104.866 92.9751C104.184 93.8158 103.812 94.8654 103.812 95.9479L103.812 105.385C103.874 107.93 101.861 110.043 99.3166 110.104 99.2424 110.106 99.168 110.106 99.0938 110.104L95.9479 110.104C93.3418 110.104 91.2292 112.217 91.2292 114.823L91.2292 127.406 84.9375 127.406 84.9375 117.969 78.6458 117.969 78.6458 127.406 72.3542 127.406 72.3542 117.969 66.0625 117.969 66.0625 127.406 59.7708 127.406 59.7708 114.823C59.7708 112.217 57.6582 110.104 55.0521 110.104L51.9062 110.104C49.3617 110.166 47.249 108.153 47.1875 105.608 47.1858 105.534 47.1858 105.46 47.1875 105.385L47.1875 95.9479C47.1877 94.8654 46.8155 93.8158 46.1336 92.9751 39.0555 84.2454 36.1771 76.6797 36.1771 66.849 36.1771 43.0035 53.8095 23.5938 75.5 23.5938 97.1905 23.5938 114.823 43.0035 114.823 66.849 114.823 76.6797 111.944 84.2454 104.866 92.9751Z" transform="matrix(1 0 0 1.00662 596 284)"/></g></svg>