<svg width="520" height="555" xmlns="http://www.w3.org/2000/svg" xmlns:xlink="http://www.w3.org/1999/xlink" xml:space="preserve" overflow="hidden"><g transform="translate(-2307 -1748)"><text fill="#FFFFFF" font-family="Rubik,Rubik_MSFontService,sans-serif" font-weight="700" font-size="60" transform="matrix(1 0 0 1 2567.03 1823)"> </text><text fill="#FFFFFF" font-family="Rubik,Rubik_MSFontService,sans-serif" font-weight="700" font-size="60" transform="matrix(1 0 0 1 2567.03 1895)"> </text><text fill="#FFFFFF" font-family="Rubik,Rubik_MSFontService,sans-serif" font-weight="700" font-size="60" transform="matrix(1 0 0 1 2567.03 1966)"> </text><text fill="#FFFFFF" font-family="Rubik,Rubik_MSFontService,sans-serif" font-weight="700" font-size="60" transform="matrix(1 0 0 1 2567.03 2038)"> </text><text fill="#FFFFFF" font-family="Rubik,Rubik_MSFontService,sans-serif" font-weight="700" font-size="60" transform="matrix(1 0 0 1 2567.03 2109)"> </text><text fill="#FFFFFF" font-family="Rubik,Rubik_MSFontService,sans-serif" font-weight="700" font-size="60" transform="matrix(1 0 0 1 2435.26 2181)">FOREIGN </text><text fill="#FFFFFF" font-family="Rubik,Rubik_MSFontService,sans-serif" font-weight="700" font-size="60" transform="matrix(1 0 0 1 2385.41 2252)">CONSULATE</text><text fill="#FFFFFF" font-family="Rubik,Rubik_MSFontService,sans-serif" font-weight="700" font-size="60" transform="matrix(1 0 0 1 2748.64 2252)"> </text><path d="M2668.06 1902.95C2655.16 1873.18 2631.77 1850.03 2601.47 1838L2596.97 1849.13C2623.97 1859.95 2645.26 1880.7 2656.96 1907.76 2668.36 1934.82 2668.96 1964.59 2658.16 1991.65 2647.36 2018.71 2626.67 2040.06 2599.67 2051.79 2572.68 2063.21 2542.99 2063.81 2515.99 2052.99L2511.49 2064.11C2522.59 2068.62 2534.29 2071.33 2545.99 2072.23L2545.99 2083.96 2486 2083.96 2486 2102 2629.97 2102 2629.97 2083.96 2569.98 2083.96 2569.98 2071.93C2581.68 2070.73 2593.07 2067.42 2604.47 2062.91 2634.46 2049.98 2657.26 2026.53 2669.26 1996.16 2681.25 1965.79 2680.95 1933.02 2668.06 1902.95Z" fill="#FFFFFF" fill-rule="evenodd"/><path d="M2655 1951C2655 2005.12 2611.12 2049 2557 2049 2502.88 2049 2459 2005.12 2459 1951 2459 1896.88 2502.88 1853 2557 1853 2611.12 1853 2655 1896.88 2655 1951Z" fill="#FFFFFF" fill-rule="evenodd"/></g></svg>