<svg width="520" height="519" xmlns="http://www.w3.org/2000/svg" xmlns:xlink="http://www.w3.org/1999/xlink" xml:space="preserve" overflow="hidden"><g transform="translate(-228 -1238)"><text fill="#FFFFFF" font-family="Rubik,Rubik_MSFontService,sans-serif" font-weight="700" font-size="60" transform="matrix(1 0 0 1 488.276 1339)"> </text><text fill="#FFFFFF" font-family="Rubik,Rubik_MSFontService,sans-serif" font-weight="700" font-size="60" transform="matrix(1 0 0 1 488.276 1411)"> </text><text fill="#FFFFFF" font-family="Rubik,Rubik_MSFontService,sans-serif" font-weight="700" font-size="60" transform="matrix(1 0 0 1 488.276 1482)"> </text><text fill="#FFFFFF" font-family="Rubik,Rubik_MSFontService,sans-serif" font-weight="700" font-size="60" transform="matrix(1 0 0 1 488.276 1554)"> </text><text fill="#FFFFFF" font-family="Rubik,Rubik_MSFontService,sans-serif" font-weight="700" font-size="60" transform="matrix(1 0 0 1 488.276 1625)"> </text><text fill="#FFFFFF" font-family="Rubik,Rubik_MSFontService,sans-serif" font-weight="700" font-size="60" transform="matrix(1 0 0 1 321.282 1697)">LANDMASS</text><text fill="#FFFFFF" font-family="Rubik,Rubik_MSFontService,sans-serif" font-weight="700" font-size="60" transform="matrix(1 0 0 1 655.292 1697)"> </text><path d="M619.3 1588.64C612.268 1585.86 604.812 1584.29 597.25 1584L597.25 1584C589.688 1584.29 582.232 1585.86 575.2 1588.64 570.519 1590.57 565.554 1591.73 560.5 1592.08L560.5 1592.08C555.446 1591.73 550.481 1590.57 545.8 1588.64 538.768 1585.86 531.312 1584.29 523.75 1584L523.75 1584C516.188 1584.29 508.732 1585.86 501.7 1588.64 497.019 1590.57 492.054 1591.73 487 1592.08 481.946 1591.73 476.981 1590.57 472.3 1588.64 465.268 1585.86 457.812 1584.29 450.25 1584L450.25 1584C442.688 1584.29 435.232 1585.86 428.2 1588.64 423.518 1590.57 418.554 1591.73 413.5 1592.08 408.446 1591.73 403.482 1590.57 398.8 1588.64 391.768 1585.86 384.312 1584.29 376.75 1584L376.75 1584C369.188 1584.29 361.732 1585.86 354.7 1588.64 350.018 1590.57 345.054 1591.73 340 1592.08L340 1614C347.562 1613.71 355.018 1612.14 362.05 1609.36 366.719 1607.36 371.683 1606.12 376.75 1605.71 381.817 1606.12 386.781 1607.36 391.45 1609.36 398.482 1612.14 405.938 1613.71 413.5 1614L413.5 1614C421.062 1613.71 428.518 1612.14 435.55 1609.36 440.219 1607.36 445.183 1606.12 450.25 1605.71 455.304 1606.05 460.269 1607.21 464.95 1609.14 471.964 1612.01 479.423 1613.66 487 1614 494.562 1613.71 502.018 1612.14 509.05 1609.36 513.719 1607.36 518.683 1606.12 523.75 1605.71 528.817 1606.12 533.781 1607.36 538.45 1609.36 545.482 1612.14 552.938 1613.71 560.5 1614L560.5 1614C568.062 1613.71 575.518 1612.14 582.55 1609.36 587.219 1607.36 592.183 1606.12 597.25 1605.71 602.304 1606.05 607.269 1607.21 611.95 1609.14 618.963 1612.01 626.423 1613.66 634 1614L634 1592.08C628.946 1591.73 623.981 1590.57 619.3 1588.64Z" fill="#FFFFFF" fill-rule="evenodd"/><path d="M492.057 1361.74C491.08 1367.07 494.604 1372.18 499.928 1373.16 504.006 1373.91 508.113 1372.01 510.186 1368.42L510.186 1368.42C518.477 1407.99 515.271 1448.44 510.481 1477.57L510.481 1477.57C489.979 1478.6 469.815 1483.21 450.897 1491.18L450.897 1491.18C450.897 1491.18 448.465 1491.18 444.522 1491.18L444.522 1491.18C437.964 1470.81 435.081 1449.43 436.01 1428.05L436.01 1428.05C437.99 1430.58 441.649 1431.03 444.183 1429.05 445.819 1427.77 446.65 1425.72 446.365 1423.66 446.33 1423.32 446.256 1422.99 446.144 1422.66L446.144 1422.66C453.735 1430.89 455.687 1439.07 458.193 1442.91 458.616 1443.53 459.464 1443.69 460.087 1443.27 460.344 1443.1 460.534 1442.84 460.625 1442.54 463.413 1433.78 462.646 1424.27 458.488 1416.06 456.011 1411.98 452.048 1409.02 447.433 1407.8L447.433 1407.8C458.562 1409.87 469.278 1413.75 479.16 1419.27 479.847 1419.67 480.726 1419.43 481.123 1418.75 481.371 1418.32 481.381 1417.79 481.15 1417.35 477.686 1410.24 469.579 1396.37 458.525 1394.01 447.47 1391.65 438.074 1402.05 435.31 1405.07 435.213 1405.18 435.05 1405.18 434.946 1405.08 434.882 1405.02 434.853 1404.94 434.868 1404.85 437.603 1397.34 434.617 1388.95 427.757 1384.86 421.05 1380.96 408.153 1383.94 400.968 1386.16 400.194 1386.33 399.713 1387.11 399.891 1387.88 400.015 1388.42 400.432 1388.83 400.968 1388.96 408.673 1390.89 416.007 1394.08 422.671 1398.4L422.671 1398.4C415.557 1394.58 406.847 1395.39 400.562 1400.46 394.667 1405 390.466 1415.51 388.329 1422 388.029 1422.73 388.381 1423.57 389.116 1423.87 389.657 1424.1 390.279 1423.97 390.687 1423.55 396.977 1417.82 404.36 1413.43 412.391 1410.64L412.391 1410.64C408.991 1413.07 406.417 1416.48 405.021 1420.41 402.405 1427.09 404.063 1436.68 405.611 1442.54 405.831 1443.32 406.646 1443.78 407.429 1443.56 407.923 1443.42 408.309 1443.03 408.448 1442.54 410.244 1435.85 413.351 1429.58 417.587 1424.1L417.587 1424.1C417.303 1424.82 417.178 1425.58 417.218 1426.35 417.653 1429.54 420.589 1431.77 423.775 1431.33 423.787 1431.33 423.801 1431.33 423.814 1431.33 425.091 1431.13 426.269 1430.53 427.167 1429.6L427.167 1429.6C426.386 1450.38 427.372 1471.19 430.115 1491.81L430.115 1491.81C409.848 1493.32 380.628 1498.7 373 1516.15L376.685 1515.85C384.267 1516.14 391.743 1517.73 398.794 1520.53 403.482 1522.5 408.462 1523.67 413.533 1524L413.533 1524C418.604 1523.67 423.584 1522.5 428.272 1520.53 435.323 1517.73 442.799 1516.14 450.381 1515.85L450.381 1515.85C457.963 1516.14 465.44 1517.73 472.49 1520.53 477.179 1522.5 482.159 1523.67 487.229 1524L487.229 1524C492.3 1523.67 497.28 1522.5 501.969 1520.53 509.019 1517.73 516.496 1516.14 524.078 1515.85L524.078 1515.85C531.66 1516.14 539.136 1517.73 546.187 1520.53 550.875 1522.5 555.855 1523.67 560.926 1524L560.926 1524C565.997 1523.67 570.977 1522.5 575.665 1520.53 582.48 1517.85 589.686 1516.29 597 1515.92L597 1515.92C581.558 1496.39 559.444 1483.25 534.911 1479.05L534.911 1479.05C534.579 1456.59 533.105 1406.4 525.073 1368.68L525.073 1368.68C527.152 1370.33 529.812 1371.06 532.442 1370.7 535.485 1370.18 538.112 1368.27 539.554 1365.54 540.959 1363.15 541.19 1360.24 540.18 1357.65L540.18 1357.65C548.601 1365.86 555.303 1375.66 559.894 1386.49 560.438 1387.74 561.892 1388.31 563.143 1387.77 563.95 1387.42 564.509 1386.66 564.611 1385.79 565.753 1375.46 566.306 1359.16 560.336 1348.69 557.09 1342.72 552.172 1337.84 546.187 1334.64 546.003 1334.64 546.187 1334.31 546.187 1334.34 559.944 1337.16 573.007 1342.67 584.62 1350.57 585.694 1351.41 587.245 1351.22 588.085 1350.14 588.692 1349.37 588.778 1348.3 588.304 1347.44 583.219 1337.15 573.749 1320.66 562.879 1314.5 547.513 1305.8 534.064 1310.3 524.152 1317.42 524.152 1317.42 524.152 1317.42 524.152 1317.42 534.531 1308.16 546.422 1300.75 559.305 1295.51 560.56 1295.03 561.19 1293.63 560.713 1292.37 560.399 1291.55 559.662 1290.96 558.789 1290.83 546.187 1288.76 524.078 1286.77 513.944 1294.89 498.984 1306.72 503.774 1323.1 507.054 1330.47 507.125 1330.57 507.1 1330.71 506.999 1330.79 506.897 1330.86 506.757 1330.83 506.685 1330.73 500.679 1324.61 483.913 1310.19 464.899 1317.12 447.102 1323.61 436.895 1348.58 432.768 1361.37 432.376 1362.66 433.1 1364.02 434.384 1364.41 435.085 1364.63 435.845 1364.51 436.453 1364.1 451.488 1352.66 468.275 1343.74 486.161 1337.66L486.161 1337.88C478.797 1340.98 472.892 1346.77 469.653 1354.07 462.283 1371.59 468.584 1389.99 472.269 1398.32 472.797 1399.52 474.191 1400.05 475.381 1399.52 475.915 1399.29 476.343 1398.86 476.58 1398.32 479.786 1391.28 481.26 1377.27 491.872 1361.93Z" fill="#FFFFFF" fill-rule="evenodd"/><path d="M619.3 1544.64C612.268 1541.86 604.812 1540.29 597.25 1540L597.25 1540C589.688 1540.29 582.232 1541.86 575.2 1544.64 570.519 1546.57 565.554 1547.73 560.5 1548.08L560.5 1548.08C555.446 1547.73 550.481 1546.57 545.8 1544.64 538.768 1541.86 531.312 1540.29 523.75 1540L523.75 1540C516.188 1540.29 508.732 1541.86 501.7 1544.64 497.019 1546.57 492.054 1547.73 487 1548.08 481.946 1547.73 476.981 1546.57 472.3 1544.64 465.268 1541.86 457.812 1540.29 450.25 1540L450.25 1540C442.688 1540.29 435.232 1541.86 428.2 1544.64 423.518 1546.57 418.554 1547.73 413.5 1548.08 408.446 1547.73 403.482 1546.57 398.8 1544.64 391.768 1541.86 384.312 1540.29 376.75 1540L376.75 1540C369.188 1540.29 361.732 1541.86 354.7 1544.64 350.018 1546.57 345.054 1547.73 340 1548.08L340 1570C347.562 1569.71 355.018 1568.14 362.05 1565.36 366.719 1563.36 371.683 1562.12 376.75 1561.71 381.817 1562.12 386.781 1563.36 391.45 1565.36 398.482 1568.14 405.938 1569.71 413.5 1570L413.5 1570C421.062 1569.71 428.518 1568.14 435.55 1565.36 440.219 1563.36 445.183 1562.12 450.25 1561.71 455.304 1562.05 460.269 1563.21 464.95 1565.14 471.964 1568.01 479.423 1569.66 487 1570 494.562 1569.71 502.018 1568.14 509.05 1565.36 513.719 1563.36 518.683 1562.12 523.75 1561.71 528.817 1562.12 533.781 1563.36 538.45 1565.36 545.482 1568.14 552.938 1569.71 560.5 1570L560.5 1570C568.062 1569.71 575.518 1568.14 582.55 1565.36 587.219 1563.36 592.183 1562.12 597.25 1561.71 602.304 1562.05 607.269 1563.21 611.95 1565.14 618.963 1568.01 626.423 1569.66 634 1570L634 1548.08C628.946 1547.73 623.981 1546.57 619.3 1544.64Z" fill="#FFFFFF" fill-rule="evenodd"/></g></svg>