<svg width="520" height="520" xmlns="http://www.w3.org/2000/svg" xmlns:xlink="http://www.w3.org/1999/xlink" xml:space="preserve" overflow="hidden"><g transform="translate(-2241 -1007)"><g><g><g><path d="M2501 1375.33C2457.67 1375.33 2423 1340.67 2423 1297.33 2423 1254 2457.67 1219.33 2501 1219.33 2544.33 1219.33 2579 1254 2579 1297.33 2579 1340.67 2544.33 1375.33 2501 1375.33ZM2414.33 1236.67 2362.33 1236.67 2362.33 1202 2414.33 1202 2414.33 1236.67ZM2657 1167.33 2570.33 1167.33 2544.33 1124 2457.67 1124 2431.67 1167.33 2345 1167.33C2335.47 1167.33 2327.67 1175.13 2327.67 1184.67L2327.67 1392.67C2327.67 1402.2 2335.47 1410 2345 1410L2657 1410C2666.53 1410 2674.33 1402.2 2674.33 1392.67L2674.33 1184.67C2674.33 1175.13 2666.53 1167.33 2657 1167.33Z" fill="#FFFFFF"/><path d="M2501 1254C2476.73 1254 2457.67 1273.07 2457.67 1297.33 2457.67 1321.6 2476.73 1340.67 2501 1340.67 2525.27 1340.67 2544.33 1321.6 2544.33 1297.33 2544.33 1273.07 2525.27 1254 2501 1254ZM2501 1358C2467.2 1358 2440.33 1331.13 2440.33 1297.33 2440.33 1263.53 2467.2 1236.67 2501 1236.67 2534.8 1236.67 2561.67 1263.53 2561.67 1297.33 2561.67 1331.13 2534.8 1358 2501 1358Z" fill="#FFFFFF"/></g></g></g></g></svg>