<svg width="519" height="520" xmlns="http://www.w3.org/2000/svg" xmlns:xlink="http://www.w3.org/1999/xlink" xml:space="preserve" overflow="hidden"><g transform="translate(-1722 -1007)"><path d="M91.0001 0C141.258-2.31711e-14 182 40.7421 182 91.0001 182 141.258 141.258 182 91.0001 182 40.7421 182 0 141.258 0 91.0001 2.31711e-14 80.848 1.6988 70.7674 5.02604 61.176" stroke="#FFFFFF" stroke-width="27.5" stroke-miterlimit="8" fill="none" fill-rule="evenodd" transform="matrix(-1 0 0 1 2072 1176)"/><path d="M1929 1267C1929 1238.28 1952.28 1215 1981 1215 2009.72 1215 2033 1238.28 2033 1267 2033 1295.72 2009.72 1319 1981 1319 1952.28 1319 1929 1295.72 1929 1267Z" fill="#FFFFFF" fill-rule="evenodd"/><path d="M143 0C221.977-3.64116e-14 286 64.0233 286 143 286 221.977 221.977 286 143 286 64.0233 286 0 221.977 0 143-1.82058e-14 128.304 2.2654 113.696 6.71639 99.6897" stroke="#FFFFFF" stroke-width="27.5" stroke-miterlimit="8" fill="none" fill-rule="evenodd" transform="matrix(-1 0 0 1 2124 1124)"/><path d="M0 0 0.000360892 155.906" stroke="#FFFFFF" stroke-width="27.5" stroke-miterlimit="8" fill="none" fill-rule="evenodd" transform="matrix(1 0 0 -1 1981 1266.91)"/></g></svg>