<svg width="520" height="520" xmlns="http://www.w3.org/2000/svg" xmlns:xlink="http://www.w3.org/1999/xlink" xml:space="preserve" overflow="hidden"><g transform="translate(-162 -1007)"><path d="M266 1403C266 1374.28 289.281 1351 318 1351 346.719 1351 370 1374.28 370 1403 370 1431.72 346.719 1455 318 1455 289.281 1455 266 1431.72 266 1403Z" stroke="#FFFFFF" stroke-width="27.5" stroke-miterlimit="8" fill="#FFFFFF" fill-rule="evenodd"/><path d="M474 1403C474 1374.28 497.281 1351 526 1351 554.719 1351 578 1374.28 578 1403 578 1431.72 554.719 1455 526 1455 497.281 1455 474 1431.72 474 1403Z" stroke="#FFFFFF" stroke-width="27.5" stroke-miterlimit="8" fill="none" fill-rule="evenodd"/><path d="M370 1403 473.937 1403" stroke="#FFFFFF" stroke-width="27.5" stroke-miterlimit="8" fill="none" fill-rule="evenodd"/><path d="M527.5 1192.82C508.51 1192.82 493.317 1177.65 493.317 1158.68 493.317 1139.71 508.51 1124.53 527.5 1124.53 546.491 1124.53 561.683 1139.71 561.683 1158.68 561.683 1177.65 546.491 1192.82 527.5 1192.82ZM527.5 1079C501.293 1079 476.605 1091.9 461.793 1113.91 446.98 1135.53 443.942 1163.23 453.437 1187.89L489.519 1267.57 520.664 1332.83C521.803 1335.48 524.462 1337 527.5 1337 530.539 1337 533.197 1335.48 534.337 1332.83L565.481 1267.57 601.563 1187.89C611.059 1163.23 608.02 1135.53 593.208 1113.91 578.395 1091.9 553.707 1079 527.5 1079Z" fill="#FFFFFF" fill-rule="evenodd"/><path d="M317 1192.82C298.129 1192.82 283.032 1177.65 283.032 1158.68 283.032 1139.71 298.129 1124.53 317 1124.53 335.871 1124.53 350.968 1139.71 350.968 1158.68 350.968 1177.65 335.871 1192.82 317 1192.82ZM317 1079C290.958 1079 266.426 1091.9 251.706 1113.91 236.987 1135.53 233.967 1163.23 243.403 1187.89L279.258 1267.57 310.207 1332.83C311.339 1335.48 313.981 1337 317 1337 320.019 1337 322.661 1335.48 323.794 1332.83L354.742 1267.57 390.597 1187.89C400.033 1163.23 397.014 1135.53 382.294 1113.91 367.575 1091.9 343.042 1079 317 1079Z" fill="#FFFFFF" fill-rule="evenodd"/></g></svg>