<svg width="520" height="520" xmlns="http://www.w3.org/2000/svg" xmlns:xlink="http://www.w3.org/1999/xlink" xml:space="preserve" overflow="hidden"><g transform="translate(-1202 -1007)"><g><g><g><path d="M1462 1432.97C1433.83 1432.97 1409.13 1413.03 1403.07 1385.73 1396.57 1358 1410.43 1329.83 1436 1317.7L1436 1127.03C1436 1112.73 1447.7 1101.03 1462 1101.03 1476.3 1101.03 1488 1112.73 1488 1127.03L1488 1317.7C1513.57 1329.83 1527 1358 1520.93 1385.73 1514.43 1413.03 1490.17 1432.53 1462 1432.97L1462 1432.97ZM1514 1302.97 1514 1127.03C1514 1098.43 1490.6 1075.03 1462 1075.03 1433.4 1075.03 1410 1098 1410 1127.03L1410 1302.97C1380.1 1325.5 1367.97 1364.5 1379.67 1399.6 1391.37 1435.13 1424.73 1458.97 1462 1458.97 1499.27 1458.97 1532.63 1435.13 1544.33 1399.6 1556.03 1364.5 1543.9 1325.5 1514 1302.97Z" fill="#FFFFFF"/><path d="M1470.67 1329.83 1470.67 1224.97 1453.33 1224.97 1453.33 1329.83C1431.67 1334.17 1416.5 1354.53 1419.1 1376.63 1421.27 1398.73 1439.9 1415.63 1462 1415.63 1484.1 1415.63 1502.73 1398.73 1504.9 1376.63 1507.5 1354.53 1492.33 1334.17 1470.67 1329.83Z" fill="#FFFFFF"/></g></g></g></g></svg>