<svg width="520" height="520" xmlns="http://www.w3.org/2000/svg" xmlns:xlink="http://www.w3.org/1999/xlink" xml:space="preserve" overflow="hidden"><g transform="translate(-748 -718)"><text fill="#FFFFFF" font-family="Rubik,Rubik_MSFontService,sans-serif" font-weight="700" font-size="60" transform="matrix(1 0 0 1 1007.96 819)"> </text><text fill="#FFFFFF" font-family="Rubik,Rubik_MSFontService,sans-serif" font-weight="700" font-size="60" transform="matrix(1 0 0 1 1007.96 891)"> </text><text fill="#FFFFFF" font-family="Rubik,Rubik_MSFontService,sans-serif" font-weight="700" font-size="60" transform="matrix(1 0 0 1 1007.96 962)"> </text><text fill="#FFFFFF" font-family="Rubik,Rubik_MSFontService,sans-serif" font-weight="700" font-size="60" transform="matrix(1 0 0 1 1007.96 1034)"> </text><text fill="#FFFFFF" font-family="Rubik,Rubik_MSFontService,sans-serif" font-weight="700" font-size="60" transform="matrix(1 0 0 1 1007.96 1105)"> </text><text fill="#FFFFFF" font-family="Rubik,Rubik_MSFontService,sans-serif" font-weight="700" font-size="60" transform="matrix(1 0 0 1 803.155 1177)">TRANSI</text><text fill="#FFFFFF" font-family="Rubik,Rubik_MSFontService,sans-serif" font-weight="700" font-size="60" transform="matrix(1 0 0 1 1026.59 1177)">T</text><text fill="#FFFFFF" font-family="Rubik,Rubik_MSFontService,sans-serif" font-weight="700" font-size="60" transform="matrix(1 0 0 1 1064.4 1177)"> </text><text fill="#FFFFFF" font-family="Rubik,Rubik_MSFontService,sans-serif" font-weight="700" font-size="60" transform="matrix(1 0 0 1 1077.01 1177)">LINE</text><text fill="#FFFFFF" font-family="Rubik,Rubik_MSFontService,sans-serif" font-weight="700" font-size="60" transform="matrix(1 0 0 1 1212.79 1177)"> </text><path d="M1076.25 932.5C1076.25 936.969 1072.84 940.625 1068.67 940.625L947.333 940.625C943.163 940.625 939.75 936.969 939.75 932.5L939.75 851.25C939.75 842.312 946.575 835 954.917 835L985.25 835C985.25 830.531 988.663 826.875 992.833 826.875L1023.17 826.875C1027.34 826.875 1030.75 830.531 1030.75 835L1061.08 835C1069.43 835 1076.25 842.312 1076.25 851.25L1076.25 932.5ZM1064.88 1030C1058.43 1030 1053.5 1024.72 1053.5 1017.81 1053.5 1010.91 1058.43 1005.62 1064.88 1005.62 1071.32 1005.62 1076.25 1010.91 1076.25 1017.81 1076.25 1024.72 1071.32 1030 1064.88 1030ZM951.125 1030C944.679 1030 939.75 1024.72 939.75 1017.81 939.75 1010.91 944.679 1005.62 951.125 1005.62 957.571 1005.62 962.5 1010.91 962.5 1017.81 962.5 1024.72 957.571 1030 951.125 1030ZM1068.67 810.625 1015.58 810.625 1015.58 786.25 1053.5 786.25 1053.5 770 962.5 770 962.5 786.25 1000.42 786.25 1000.42 810.625 947.333 810.625C930.65 810.625 917 825.25 917 843.125L917 1030C917 1043.41 927.238 1054.37 939.75 1054.37L943.163 1054.37 926.1 1095 942.783 1095 959.846 1054.37 1056.15 1054.37 1073.22 1095 1089.9 1095 1072.84 1054.37 1076.25 1054.37C1088.76 1054.37 1099 1043.41 1099 1030L1099 843.125C1099 825.25 1085.35 810.625 1068.67 810.625Z" fill="#FFFFFF" fill-rule="evenodd"/></g></svg>